<svg xmlns="http://www.w3.org/2000/svg" version="1.1" xmlns:xlink="http://www.w3.org/1999/xlink" xmlns:svgjs="http://svgjs.dev/svgjs" width="2000" height="1999" viewBox="0 0 2000 1999"><g transform="matrix(1,0,0,1,-0.4314868804665366,-0.4312711370263287)"><svg viewBox="0 0 343 343" data-background-color="#ffffff" preserveAspectRatio="xMidYMid meet" height="1999" width="2000" xmlns="http://www.w3.org/2000/svg" xmlns:xlink="http://www.w3.org/1999/xlink"><g id="tight-bounds" transform="matrix(1,0,0,1,0.07400000000001228,0.07400000000001228)"><svg viewBox="0 0 342.8515585177538 342.8515585177538" height="342.8515585177538" width="342.8515585177538"><g><svg></svg></g><g><svg viewBox="0 0 342.8515585177538 342.8515585177538" height="342.8515585177538" width="342.8515585177538"><g><path d="M0 171.426c0-94.676 76.75-171.426 171.426-171.426 94.676 0 171.426 76.75 171.426 171.426 0 94.676-76.75 171.426-171.426 171.426-94.676 0-171.426-76.75-171.426-171.426zM171.426 327.771c86.347 0 156.345-69.998 156.345-156.345 0-86.347-69.998-156.345-156.345-156.345-86.347 0-156.345 69.998-156.345 156.345 0 86.347 69.998 156.345 156.345 156.345z" data-fill-palette-color="tertiary" fill="#db322c" stroke="transparent"></path><ellipse rx="164.56874808852183" ry="164.56874808852183" cx="171.4257792588769" cy="171.4257792588769" fill="#db322c" stroke="transparent" stroke-width="0" fill-opacity="1" data-fill-palette-color="tertiary"></ellipse></g><g transform="matrix(1,0,0,1,64.84655864529836,87.81114209242301)"><svg viewBox="0 0 213.15844122715708 167.22927433290778" height="167.22927433290778" width="213.15844122715708"><g><svg viewBox="0 0 213.15844122715708 167.22927433290778" height="167.22927433290778" width="213.15844122715708"><g><svg viewBox="0 0 213.15844122715714 167.2292743329078" height="167.22927433290778" width="213.15844122715708"><g><svg viewBox="0 0 213.15844122715714 167.2292743329078" height="167.2292743329078" width="213.15844122715714"><g id="textblocktransform"><svg viewBox="0 0 213.15844122715714 167.2292743329078" height="167.2292743329078" width="213.15844122715714" id="textblock"><g><svg viewBox="0 0 213.15844122715714 167.2292743329078" height="167.2292743329078" width="213.15844122715714"><g transform="matrix(1,0,0,1,0,0)"><svg width="213.15844122715714" viewBox="1.5 -35 45.25 35.5" height="167.2292743329078" data-palette-color="#ffffff"><path d="M22.25 0.5L7-28.75 7-2.25 11-0.75 11 0 1.5 0 1.5-0.75 5.5-2.25 5.5-33.5 2.5-34.25 2.5-35 8.75-35Q11.35-35 12.88-33.93 14.4-32.85 15.5-30.75L15.5-30.75 26.4-9.9 34.75-30.75Q35.6-32.95 37.05-33.98 38.5-35 41.5-35L41.5-35 46.75-35 46.75-34.25 43.75-33.5 43.75-1.5 46.75-0.75 46.75 0 32.5 0 32.5-0.75 35.5-1.5 35.5-28.75 23.75 0.5 22.25 0.5Z" opacity="1" transform="matrix(1,0,0,1,0,0)" fill="#ffffff" class="wordmark-text-0" data-fill-palette-color="quaternary" id="text-0"></path></svg></g></svg></g></svg></g></svg></g><g></g></svg></g></svg></g></svg></g></svg></g><defs></defs></svg><rect width="342.8515585177538" height="342.8515585177538" fill="none" stroke="none" visibility="hidden"></rect></g></svg></g></svg>